<mxfile host="drawio-plugin" modified="2023-11-08T00:49:33.353Z" agent="5.0 (Macintosh; Intel Mac OS X 10_15_7) AppleWebKit/537.36 (KHTML, like Gecko) Chrome/98.0.4758.102 Safari/537.36" etag="9upENF_FcHxps3McAEBn" version="20.5.3" type="embed"><diagram id="Kg15-ULdHnPpLUwyLWKL" name="Page-1"><mxGraphModel dx="766" dy="605" grid="1" gridSize="10" guides="1" tooltips="1" connect="1" arrows="1" fold="1" page="1" pageScale="1" pageWidth="850" pageHeight="1100" background="#F1FAEE" math="0" shadow="0"><root><mxCell id="0"/><mxCell id="1" parent="0"/><mxCell id="47" value="" style="group" parent="1" vertex="1" connectable="0"><mxGeometry x="130" y="60" width="510" height="430" as="geometry"/></mxCell><mxCell id="4" value="终端显示层" style="rounded=1;whiteSpace=wrap;html=1;sketch=0;fontColor=#1D3557;strokeColor=#457B9D;fillColor=#A8DADC;" parent="47" vertex="1"><mxGeometry x="93.67346938775505" width="124.89795918367342" height="60.000000000000014" as="geometry"/></mxCell><mxCell id="5" value="开放接口" style="rounded=1;whiteSpace=wrap;html=1;sketch=0;fontColor=#1D3557;strokeColor=#457B9D;fillColor=#A8DADC;" parent="47" vertex="1"><mxGeometry x="249.79591836734684" width="156.12244897959175" height="60.000000000000014" as="geometry"/></mxCell><mxCell id="6" value="请求处理层(Web层)" style="rounded=1;whiteSpace=wrap;html=1;sketch=0;fontColor=#1D3557;strokeColor=#457B9D;fillColor=#A8DADC;" parent="47" vertex="1"><mxGeometry x="93.67346938775505" y="80.00000000000001" width="156.12244897959175" height="60.000000000000014" as="geometry"/></mxCell><mxCell id="7" value="业务逻辑层(Service层)" style="rounded=1;whiteSpace=wrap;html=1;sketch=0;fontColor=#1D3557;strokeColor=#457B9D;fillColor=#A8DADC;" parent="47" vertex="1"><mxGeometry x="93.67346938775505" y="170.0000000000001" width="312.2448979591835" height="60.000000000000014" as="geometry"/></mxCell><mxCell id="8" value="数据持久层(DAO层)" style="rounded=1;whiteSpace=wrap;html=1;sketch=0;fontColor=#1D3557;strokeColor=#457B9D;fillColor=#A8DADC;" parent="47" vertex="1"><mxGeometry x="93.67346938775505" y="320.00000000000006" width="124.89795918367342" height="60.000000000000014" as="geometry"/></mxCell><mxCell id="10" value="Client(层)" style="rounded=1;whiteSpace=wrap;html=1;sketch=0;fontColor=#1D3557;strokeColor=#457B9D;fillColor=#A8DADC;" parent="47" vertex="1"><mxGeometry x="286.2244897959182" y="270.00000000000006" width="124.89795918367342" height="60.000000000000014" as="geometry"/></mxCell><mxCell id="11" value="数据源" style="shape=datastore;whiteSpace=wrap;html=1;rounded=0;sketch=0;fontColor=#1D3557;strokeColor=#457B9D;fillColor=#A8DADC;" parent="47" vertex="1"><mxGeometry x="72.8571428571428" y="390" width="83.26530612244898" height="40.00000000000001" as="geometry"/></mxCell><mxCell id="12" value="数据源" style="shape=datastore;whiteSpace=wrap;html=1;rounded=0;sketch=0;fontColor=#1D3557;strokeColor=#457B9D;fillColor=#A8DADC;" parent="47" vertex="1"><mxGeometry x="161.32653061224488" y="390" width="88.469387755102" height="40.00000000000001" as="geometry"/></mxCell><mxCell id="13" value="外部接口或第三方平台" style="shape=note;whiteSpace=wrap;html=1;backgroundOutline=1;darkOpacity=0.05;rounded=0;sketch=0;fontColor=#1D3557;strokeColor=#457B9D;fillColor=#A8DADC;" parent="47" vertex="1"><mxGeometry x="270.61224489795904" y="390" width="176.938775510204" height="40.00000000000001" as="geometry"/></mxCell><mxCell id="15" value="" style="shape=singleArrow;direction=south;whiteSpace=wrap;html=1;rounded=0;sketch=0;fontColor=#1D3557;strokeColor=#457B9D;fillColor=#A8DADC;" parent="47" vertex="1"><mxGeometry x="343.469387755102" y="85.00000000000006" width="41.63265306122449" height="49.99999999999999" as="geometry"/></mxCell><mxCell id="17" value="" style="shape=singleArrow;direction=south;whiteSpace=wrap;html=1;rounded=0;sketch=0;fontColor=#1D3557;strokeColor=#457B9D;fillColor=#A8DADC;rotation=-180;" parent="47" vertex="1"><mxGeometry x="291.4285714285712" y="85.00000000000006" width="41.63265306122449" height="49.99999999999999" as="geometry"/></mxCell><mxCell id="20" value="Result&amp;lt;VO&amp;gt;" style="text;strokeColor=none;fillColor=none;html=1;fontSize=24;fontStyle=1;verticalAlign=middle;align=center;rounded=0;sketch=0;fontColor=#1D3557;" parent="47" vertex="1"><mxGeometry x="72.85959183673471" y="50.000000000000014" width="104.08163265306116" height="40.00000000000001" as="geometry"/></mxCell><mxCell id="23" value="CQE" style="text;strokeColor=none;fillColor=none;html=1;fontSize=24;fontStyle=1;verticalAlign=middle;align=center;rounded=0;sketch=0;fontColor=#1D3557;" parent="47" vertex="1"><mxGeometry x="364.29020408163257" y="50.00000000000001" width="104.08163265306116" height="40.00000000000001" as="geometry"/></mxCell><mxCell id="24" value="DP" style="text;strokeColor=none;fillColor=none;html=1;fontSize=24;fontStyle=1;verticalAlign=middle;align=center;rounded=0;sketch=0;fontColor=#1D3557;" parent="47" vertex="1"><mxGeometry x="369.4883673469386" y="95.00000000000003" width="104.08163265306116" height="40.00000000000001" as="geometry"/></mxCell><mxCell id="25" value="ResponseDTO&amp;nbsp;" style="text;strokeColor=none;fillColor=none;html=1;fontSize=24;fontStyle=1;verticalAlign=middle;align=center;rounded=0;sketch=0;fontColor=#1D3557;" parent="47" vertex="1"><mxGeometry x="234.1795918367347" y="50.00000000000003" width="104.08163265306116" height="40.00000000000001" as="geometry"/></mxCell><mxCell id="26" value="" style="shape=singleArrow;direction=south;whiteSpace=wrap;html=1;rounded=0;sketch=0;fontColor=#1D3557;strokeColor=#457B9D;fillColor=#A8DADC;" parent="47" vertex="1"><mxGeometry x="156.12244897959175" y="250.00000000000003" width="41.63265306122449" height="49.99999999999999" as="geometry"/></mxCell><mxCell id="27" value="" style="shape=singleArrow;direction=south;whiteSpace=wrap;html=1;rounded=0;sketch=0;fontColor=#1D3557;strokeColor=#457B9D;fillColor=#A8DADC;rotation=-180;" parent="47" vertex="1"><mxGeometry x="104.08163265306116" y="250.00000000000003" width="41.63265306122449" height="49.99999999999999" as="geometry"/></mxCell><mxCell id="28" value="" style="shape=singleArrow;direction=south;whiteSpace=wrap;html=1;rounded=0;sketch=0;fontColor=#1D3557;strokeColor=#457B9D;fillColor=#A8DADC;" parent="47" vertex="1"><mxGeometry x="348.673469387755" y="336.00000000000006" width="41.63265306122449" height="49.99999999999999" as="geometry"/></mxCell><mxCell id="29" value="" style="shape=singleArrow;direction=south;whiteSpace=wrap;html=1;rounded=0;sketch=0;fontColor=#1D3557;strokeColor=#457B9D;fillColor=#A8DADC;rotation=-180;" parent="47" vertex="1"><mxGeometry x="296.63265306122423" y="336.00000000000006" width="41.63265306122449" height="49.99999999999999" as="geometry"/></mxCell><mxCell id="30" value="" style="shape=singleArrow;direction=south;whiteSpace=wrap;html=1;rounded=0;sketch=0;fontColor=#1D3557;strokeColor=#457B9D;fillColor=#A8DADC;" parent="47" vertex="1"><mxGeometry x="343.469387755102" y="236.00000000000006" width="41.63265306122449" height="30.000000000000007" as="geometry"/></mxCell><mxCell id="31" value="" style="shape=singleArrow;direction=south;whiteSpace=wrap;html=1;rounded=0;sketch=0;fontColor=#1D3557;strokeColor=#457B9D;fillColor=#A8DADC;rotation=-180;" parent="47" vertex="1"><mxGeometry x="301.83673469387725" y="236.00000000000006" width="41.63265306122449" height="30.000000000000007" as="geometry"/></mxCell><mxCell id="32" value="BO" style="text;strokeColor=none;fillColor=none;html=1;fontSize=24;fontStyle=1;verticalAlign=middle;align=center;rounded=0;sketch=0;fontColor=#1D3557;" parent="47" vertex="1"><mxGeometry x="52.04" y="209.99999999999997" width="104.08163265306116" height="40.00000000000001" as="geometry"/></mxCell><mxCell id="33" value="DO&amp;nbsp;" style="text;strokeColor=none;fillColor=none;html=1;fontSize=24;fontStyle=1;verticalAlign=middle;align=center;rounded=0;sketch=0;fontColor=#1D3557;" parent="47" vertex="1"><mxGeometry x="52.04081632653058" y="289.9999999999999" width="104.08163265306116" height="40.00000000000001" as="geometry"/></mxCell><mxCell id="34" value="BO" style="text;strokeColor=none;fillColor=none;html=1;fontSize=24;fontStyle=1;verticalAlign=middle;align=center;rounded=0;sketch=0;fontColor=#1D3557;" parent="47" vertex="1"><mxGeometry x="166.53061224489795" y="209.99999999999997" width="104.08163265306116" height="40.00000000000001" as="geometry"/></mxCell><mxCell id="35" value="Param" style="text;strokeColor=none;fillColor=none;html=1;fontSize=24;fontStyle=1;verticalAlign=middle;align=center;rounded=0;sketch=0;fontColor=#1D3557;" parent="47" vertex="1"><mxGeometry x="161.32653061224488" y="289.9999999999999" width="104.08163265306116" height="40.00000000000001" as="geometry"/></mxCell><mxCell id="39" value="CQE" style="text;strokeColor=none;fillColor=none;html=1;fontSize=24;fontStyle=1;verticalAlign=middle;align=center;rounded=0;sketch=0;fontColor=#1D3557;" parent="47" vertex="1"><mxGeometry x="385.1020408163264" y="309.99999999999983" width="104.08163265306116" height="40.00000000000001" as="geometry"/></mxCell><mxCell id="40" value="SQL&amp;nbsp;" style="text;strokeColor=none;fillColor=none;html=1;fontSize=24;fontStyle=1;verticalAlign=middle;align=center;rounded=0;sketch=0;fontColor=#1D3557;" parent="47" vertex="1"><mxGeometry x="114.48979591836735" y="360.0000000000001" width="104.08163265306116" height="40.00000000000001" as="geometry"/></mxCell><mxCell id="43" value="ResponseDTO&amp;nbsp;" style="text;strokeColor=none;fillColor=none;html=1;fontSize=24;fontStyle=1;verticalAlign=middle;align=center;rounded=0;sketch=0;fontColor=#1D3557;" parent="47" vertex="1"><mxGeometry x="260.20408163265296" y="310" width="104.08163265306116" height="40.00000000000001" as="geometry"/></mxCell><mxCell id="45" value="Param" style="text;strokeColor=none;fillColor=none;html=1;fontSize=24;fontStyle=1;verticalAlign=middle;align=center;rounded=0;sketch=0;fontColor=#1D3557;" parent="47" vertex="1"><mxGeometry x="364.28571428571405" y="250.00000000000003" width="104.08163265306116" height="40.00000000000001" as="geometry"/></mxCell><mxCell id="46" value="BO" style="text;strokeColor=none;fillColor=none;html=1;fontSize=24;fontStyle=1;verticalAlign=middle;align=center;rounded=0;sketch=0;fontColor=#1D3557;" parent="47" vertex="1"><mxGeometry x="265.40816326530603" y="250.00000000000003" width="104.08163265306116" height="40.00000000000001" as="geometry"/></mxCell><mxCell id="55" value="BO" style="text;strokeColor=none;fillColor=none;html=1;fontSize=24;fontStyle=1;verticalAlign=middle;align=center;rounded=0;sketch=0;fontColor=#1D3557;" vertex="1" parent="47"><mxGeometry x="329.9983673469386" y="135.00000000000003" width="104.08163265306116" height="40.00000000000001" as="geometry"/></mxCell><mxCell id="120" value="BO" style="text;strokeColor=none;fillColor=none;html=1;fontSize=24;fontStyle=1;verticalAlign=middle;align=center;rounded=0;sketch=0;fontColor=#1D3557;" vertex="1" parent="47"><mxGeometry x="260.20836734693864" y="135.00000000000003" width="104.08163265306116" height="40.00000000000001" as="geometry"/></mxCell></root></mxGraphModel></diagram></mxfile>